<svg width="70" height="73" viewBox="0 0 70 73" fill="none" xmlns="http://www.w3.org/2000/svg">
<path d="M14.75 0.250001C19.3747 0.248727 23.9118 1.51136 27.871 3.90146C31.8302 6.29155 35.061 9.71821 37.2141 13.8111C39.3893 10.7374 42.2705 8.23071 45.6156 6.50171C48.9607 4.7727 52.672 3.8719 56.4375 3.875H69.125V12.9375C69.125 19.1867 66.6425 25.1799 62.2237 29.5987C57.8049 34.0175 51.8117 36.5 45.5625 36.5H40.125V40.125H58.25V65.5C58.25 67.4228 57.4862 69.2669 56.1265 70.6265C54.7669 71.9862 52.9228 72.75 51 72.75H22C20.0772 72.75 18.2331 71.9862 16.8735 70.6265C15.5138 69.2669 14.75 67.4228 14.75 65.5V40.125H32.875V32.875H25.625C18.8951 32.875 12.4409 30.2016 7.68216 25.4428C2.92343 20.6841 0.25 14.2299 0.25 7.5V0.250001H14.75ZM51 47.375H22V65.5H51V47.375ZM61.875 11.125H56.4375C52.1112 11.125 47.962 12.8436 44.9028 15.9028C41.8436 18.962 40.125 23.1112 40.125 27.4375V29.25H45.5625C47.7047 29.25 49.8259 28.8281 51.805 28.0083C53.7841 27.1885 55.5824 25.9869 57.0972 24.4722C58.6119 22.9574 59.8135 21.1591 60.6333 19.18C61.4531 17.2009 61.875 15.0797 61.875 12.9375V11.125ZM14.75 7.5H7.5C7.5 12.307 9.40959 16.9172 12.8087 20.3163C16.2078 23.7154 20.818 25.625 25.625 25.625H32.875C32.875 20.818 30.9654 16.2078 27.5663 12.8087C24.1672 9.40959 19.557 7.5 14.75 7.5Z" fill="white"/>
</svg>
